<?xml version="1.0" encoding="utf-8"?>
<!-- Generator: Adobe Illustrator 26.0.3, SVG Export Plug-In . SVG Version: 6.00 Build 0)  -->
<svg version="1.1" id="Calque_1" xmlns="http://www.w3.org/2000/svg" xmlns:xlink="http://www.w3.org/1999/xlink" x="0px" y="0px"
	 viewBox="0 0 414 258" style="enable-background:new 0 0 414 258;" xml:space="preserve">
<style type="text/css">
	.st0{opacity:0.28;}
	.st1{fill:#FFFFFF;}
</style>
<g class="st0">
	<g>
		<path class="st1" d="M354,18c20,0,40,0,60,0c0,75.22,0,150.44,0,225.67c-138,0-276,0-414,0C0,168.44,0,93.22,0,18
			c115.56,0,231.11,0,346.67,0c-1.21,0.55-2.45,1.02-3.61,1.65c-5.47,2.99-8.4,9.22-7.28,15.34c1.15,6.23,6.13,11.04,12.33,11.9
			c6.43,0.89,12.53-2.38,15.34-8.23c2.69-5.6,1.57-12.5-3.05-16.65C358.55,20.35,356.15,19.32,354,18z M358.97,48.21
			c-0.35,0.1-0.51,0.13-0.66,0.2c-5.7,2.68-11.34,2.74-16.96-0.3c-0.45-0.25-1.25-0.1-1.8,0.12c-2.48,0.96-4.86,2.22-7.4,2.98
			c-5.81,1.75-11.71,2.66-17.68,0.68c-4.96-1.65-9.07-4.62-12.75-8.26c-2.02-2-4.89-2.5-7.36-1.29c-3.6,1.75-4.51,6.4-1.81,9.64
			c4.34,5.22,9.88,8.73,16.2,11.03c10.93,3.97,21.71,3.09,32.33-1.27c0.69-0.28,1.38-0.58,2.07-0.88c0.08,0.12,0.17,0.23,0.25,0.35
			c-0.76,0.85-1.48,1.73-2.28,2.54c-6.29,6.33-14.18,9.07-22.81,10.24c-13.87,1.87-25.92-1.67-35.57-12.04
			c-3.39-3.65-6.39-7.67-9.41-11.63c-1.55-2.04-3.42-3.09-5.93-3.07c-3.83,0.04-7.66,0.11-11.5,0.21c-0.7,0.02-1.45,0.15-2.1,0.42
			c-2.76,1.14-4.17,3.83-3.65,6.76c0.5,2.83,3.05,5.16,5.88,5.25c2.16,0.07,4.34,0.1,6.5-0.01c1.49-0.08,2.39,0.4,3.28,1.66
			c8,11.33,18.55,19.3,31.73,23.72c11.49,3.85,23.18,3.56,34.92,1.5c5.93-1.04,11.5-3.04,16.18-6.98
			c6.4-5.39,9.36-12.59,10.27-20.66C359.3,55.57,358.97,51.95,358.97,48.21z M146.58,193.57c-6.34,0-12.42,0-18.68,0
			c0-6.31,0-12.49,0-18.82c-5.45,0-10.71,0.01-15.98-0.01c-1.12,0-1.04,0.74-1.04,1.47c0,17.38,0.01,34.76-0.02,52.14
			c0,1.23,0.51,1.47,1.6,1.46c4.66-0.04,9.33-0.02,13.99-0.03c0.47,0,0.94-0.1,1.55-0.16c0-7.46,0-14.76,0-22.16
			c6.23,0,12.3,0,18.6,0c0,7.44,0,14.79,0,22.22c5.79,0,11.36,0,16.98,0c0-18.34,0-36.57,0-54.81c-5.7,0-11.28,0-17,0
			C146.58,181.16,146.58,187.3,146.58,193.57z M230.14,202.09c-0.18-2.15-0.22-4.33-0.57-6.46c-1.7-10.35-7.26-17.52-17.52-20.5
			c-7.03-2.04-14.17-2.06-21.2,0.01c-8.2,2.41-13.75,7.75-16.37,15.9c-2.23,6.94-2.34,14.03-0.44,21.04
			c2.36,8.7,7.72,14.79,16.57,17.32c6.63,1.89,13.39,2.08,20.11,0.52c8.45-1.96,14.33-7.03,17.39-15.21
			C229.61,210.65,230.02,206.4,230.14,202.09z M308.17,206.3c8.84,0,17.57,0,26.45,0c0-3.33-0.05-6.44,0.02-9.54
			c0.03-1.28-0.34-1.72-1.69-1.71c-7.61,0.06-15.22,0.03-22.83,0.03c-0.64,0-1.28-0.06-2.07-0.1c0-2.33,0.08-4.49-0.03-6.65
			c-0.07-1.36,0.42-1.67,1.71-1.67c8.33,0.05,16.67,0.03,25,0.03c0.59,0,1.18,0,1.94,0c0-3.5-0.08-6.77,0.03-10.03
			c0.05-1.53-0.41-1.95-1.95-1.95c-14,0.06-28,0.03-42,0.04c-0.54,0-1.08,0.05-1.67,0.07c0,18.36,0,36.6,0,54.87
			c15.49,0,30.85,0,46.34,0c0-4.29,0-8.47,0-12.88c-9.81,0-19.5,0-29.26,0C308.17,213.25,308.17,209.89,308.17,206.3z
			 M102.02,211.75c-4.64-1.38-9.3-2.79-13.99-4.11c-0.25-0.07-0.85,0.48-1.03,0.87c-0.82,1.75-1.34,3.67-2.35,5.29
			c-2.29,3.66-5.93,4.42-9.91,3.99c-3.88-0.42-6.72-2.41-7.85-6.22c-1.7-5.76-1.85-11.62-0.21-17.42c1.29-4.54,4.97-7.26,9.57-7.44
			c4.69-0.18,8.07,2.04,9.96,6.54c0.15,0.35,0.32,0.69,0.54,1.14c4.94-1.09,9.84-2.17,14.94-3.29c-2.55-7.6-6.73-13.36-14.44-15.85
			c-5.38-1.74-10.93-1.93-16.48-1.14c-10.09,1.42-17.4,6.55-20.58,16.5c-2.41,7.53-2.48,15.27-0.06,22.8
			c2.34,7.3,6.82,13.02,14.34,15.58c7.26,2.47,14.74,2.64,22.17,0.72C94.27,227.72,100.54,220.86,102.02,211.75z M342.86,188.43
			c0.9,0,1.55,0,2.21,0c4.33,0,8.66,0,13,0c2.2,0,2.2,0,2.2,2.14c0,12.5,0.02,24.99-0.03,37.49c-0.01,1.4,0.4,1.8,1.78,1.77
			c4.44-0.08,8.89-0.1,13.33,0.01c1.65,0.04,2.02-0.49,2.02-2.07c-0.06-12.5-0.01-24.99-0.06-37.49c-0.01-1.45,0.36-1.92,1.86-1.89
			c4.5,0.1,9,0.04,13.5,0.04c0.64,0,1.29,0,1.97,0c0-4.66,0-9.07,0-13.6c-0.63-0.03-1.17-0.08-1.71-0.08c-16.05,0-32.1,0-48.15,0
			c-0.28,0-0.63-0.11-0.82,0.03c-0.4,0.29-1.02,0.7-1.03,1.07C342.83,179.94,342.86,184.05,342.86,188.43z M389.99,155.09
			c0,0.25,0.01,0.51,0.01,0.76c-1.64,0.39-3.27,0.88-4.93,1.16c-11.96,2.03-24.05,2.75-36.14,3.25c-19.09,0.8-38.18,1.5-57.28,1.86
			c-52.82,0.99-105.64,1.28-158.46,0.16c-20.77-0.44-41.54-1.04-62.2-3.32c-5.66-0.63-11.26-1.91-16.86-2.99
			c-1.08-0.21-2.06-0.91-3.08-1.38c-0.02-0.21-0.04-0.41-0.06-0.62c1.21-0.69,2.35-1.63,3.65-2.03c6.25-1.94,12.46-4.09,18.83-5.53
			c24.99-5.66,50.34-9.22,75.71-12.69c2.91-0.4,5.84-0.74,8.75-1.13c0.96-0.13,1.8-0.52,1.67-1.66c-0.13-1.15-1.01-1.34-1.99-1.22
			c-0.28,0.03-0.55,0.09-0.82,0.12c-6.22,0.84-12.44,1.65-18.65,2.51c-20.13,2.79-40.23,5.82-60.1,10.1
			c-7.31,1.58-14.53,3.64-21.72,5.74c-2.4,0.7-4.71,2.02-6.77,3.46c-2.22,1.55-2.03,4.02,0.25,5.5c1.24,0.8,2.66,1.51,4.09,1.78
			c6.16,1.16,12.31,2.47,18.53,3.12c25.77,2.69,51.66,3.13,77.54,3.46c23.72,0.3,47.44,0.48,71.15,0.25
			c36.26-0.36,72.53-1,108.79-1.75c16.77-0.34,33.53-1.22,50.19-3.34c3.99-0.51,7.93-1.54,11.82-2.61c0.86-0.24,1.9-1.58,1.96-2.47
			c0.06-0.79-0.97-2.17-1.79-2.42c-3.85-1.19-7.79-2.13-11.72-3.02c-0.43-0.1-1.06,0.7-1.6,1.08c0.42,0.56,0.72,1.34,1.27,1.64
			c0.7,0.37,1.62,0.31,2.43,0.49C384.96,153.91,387.47,154.5,389.99,155.09z M239.55,174.75c-0.06,0.52-0.12,0.84-0.12,1.16
			c0,17.49,0.01,34.99-0.02,52.48c0,1.09,0.34,1.43,1.43,1.43c13.66-0.03,27.32-0.03,40.99,0c1.11,0,1.42-0.4,1.4-1.47
			c-0.06-3.5-0.09-7,0.01-10.5c0.04-1.42-0.43-1.77-1.79-1.76c-7.61,0.06-15.22,0.03-22.83,0.02c-0.64,0-1.28,0-2.04,0
			c0-0.87,0-1.47,0-2.07c0-12.5-0.03-24.99,0.04-37.49c0.01-1.5-0.44-1.89-1.88-1.84c-3.22,0.1-6.44,0.03-9.66,0.03
			C243.25,174.75,241.43,174.75,239.55,174.75z M337.22,131.14c0.2-0.89,0.3-1.43,0.44-1.95c1.45-5.47,3.01-10.91,4.29-16.42
			c0.37-1.57,0.54-3.69-0.21-4.94c-3.14-5.16-6.65-10.1-10.11-15.06c-0.38-0.54-1.33-0.96-2.02-0.96c-2.77,0.02-5.54,0.21-8.32,0.36
			c-1.52,0.08-3.04,0.18-4.8,0.28c0.43,0.71,0.68,1.18,0.98,1.63c3.61,5.4,7.19,10.82,10.86,16.17c0.77,1.13,0.88,2.1,0.52,3.38
			c-2.08,7.37-4.04,14.77-6.1,22.14c-1,3.58,1.83,7.87,5.86,7.55c3.7-0.29,7.43-0.06,11.15-0.07c3.47-0.01,6.16-2.65,6.18-6.05
			c0.02-3.35-2.7-6.04-6.16-6.07C339.02,131.14,338.26,131.14,337.22,131.14z M24.45,141.82c-2.88,0.88-4.85,2.38-5.45,5.13
			c-0.36,1.66-0.45,3.41-0.45,5.12c-0.01,6.62,3.69,10.46,10.29,10.77c5.18,0.24,9.57-2.43,10.66-6.75c1.1-4.34,0.74-8.56-1.5-12.58
			c-0.78-1.4-1.72-2-3.28-1.93c-1.83,0.07-3.67,0.04-5.5-0.03c-1.02-0.04-1.37,0.37-1.35,1.36c0.04,1.83,0.08,3.67-0.03,5.5
			c-0.19,3.39-0.24,3.36,3.08,3.17c0.92-0.05,1.3-0.37,1.26-1.29c-0.05-0.97-0.01-1.95-0.01-3.16c0.9,0.16,1.62,0.08,2.03,0.4
			c2.39,1.9,1.41,7.3-1.53,8.33c-2.27,0.79-4.61,0.77-6.87-0.06c-3.1-1.14-3.72-5.18-1.22-7.32c0.39-0.33,0.77-0.99,0.72-1.45
			C25.14,145.39,24.79,143.76,24.45,141.82z M39.2,207.44c-1.1,0.38-1.88,0.63-2.65,0.91c-5.22,1.9-10.45,3.77-15.64,5.73
			c-3.2,1.21-2.58,0.39-2.65,3.81c-0.02,0.89,0.06,1.79-0.06,2.66c-0.16,1.13,0.24,1.67,1.33,2.08c5.98,2.25,11.92,4.58,17.88,6.87
			c0.44,0.17,0.91,0.26,1.64,0.47c0-2.06,0.04-3.89-0.03-5.7c-0.01-0.33-0.44-0.9-0.71-0.92c-2.82-0.24-2.92-2.08-2.65-4.23
			c0.08-0.6,0.1-1.24-0.01-1.83c-0.3-1.73,0.43-2.53,2.11-2.83c0.54-0.09,1.34-0.76,1.38-1.22C39.29,211.44,39.2,209.61,39.2,207.44
			z M24.67,186.55c-2.44,0.67-4.31,1.85-5.3,3.95c-1.82,3.84-1.76,7.77,0.22,11.53c0.59,1.13,1.63,2.14,2.69,2.88
			c3.33,2.34,9.92,2.19,13.33-0.1c3.39-2.27,4.82-5.95,3.79-12.1c-0.54-3.21-2.8-5.07-5.77-6.08c-0.34-0.11-1.1,0.11-1.19,0.34
			c-0.57,1.59-1.01,3.23-1.49,4.82c0.91,0.43,1.63,0.73,2.3,1.11c1.4,0.79,1.69,2.13,1.59,3.58c-0.1,1.44-0.73,2.87-2.16,3.03
			c-2.43,0.26-5.02,0.5-7.34-0.07c-2.79-0.7-3.38-4.88-0.99-6.43c1.54-1,1.4-1.97,1.03-3.31C25.14,188.76,24.95,187.78,24.67,186.55
			z M39.55,183.03c0-1.81,0.06-3.52-0.05-5.22c-0.03-0.38-0.65-0.99-1.05-1.04c-1.32-0.15-2.66-0.06-3.99-0.11
			c-2.67-0.09-2.53-0.11-2.69-2.79c-0.12-1.9-0.34-3.92-1.11-5.62c-1.15-2.53-4.27-3.43-7.55-2.67c-2.69,0.62-4.27,2.61-4.39,5.89
			c-0.13,3.55-0.08,7.1-0.1,10.65c0,0.25,0.11,0.51,0.21,0.91C25.64,183.03,32.38,183.03,39.55,183.03z M169.39,137.94
			c1.75,0,3.19,0.07,4.62-0.04c0.41-0.03,1.07-0.54,1.12-0.89c0.24-1.92,1.4-2.27,3.05-2.09c0.77,0.09,1.56,0.07,2.33,0
			c1.15-0.11,1.7,0.33,1.96,1.48c0.13,0.57,0.71,1.41,1.16,1.47c1.51,0.19,3.06,0.07,4.86,0.07c-0.3-0.91-0.51-1.58-0.75-2.24
			c-1.39-3.75-2.82-7.48-4.17-11.24c-1.58-4.39-1.56-4.36-6.23-4.29c-1.07,0.02-1.58,0.4-1.94,1.38c-1.39,3.87-2.85,7.71-4.28,11.56
			C170.57,134.61,170.04,136.12,169.39,137.94z M265.11,126.58c-0.41-0.31-0.66-0.51-0.93-0.7c-2.75-1.99-6.48-0.95-7.72,2.18
			c-0.85,2.13-0.94,4.33-0.25,6.51c0.85,2.67,3.42,4.13,6.15,3.47c0.83-0.2,1.61-0.6,2.62-0.98c0,1.96,0,3.76,0,5.8
			c1.26,0,2.36-0.06,3.44,0.02c1.17,0.09,1.53-0.37,1.52-1.52c-0.05-4.38-0.02-8.75-0.02-13.13c0-0.98,0-1.96,0-2.88
			C266.63,124.69,265.56,124.95,265.11,126.58z M272.77,125.19c0,3.09-0.12,5.98,0.03,8.85c0.17,3.12,2.51,4.77,5.57,3.99
			c1.02-0.26,1.92-1.02,2.88-1.53c0.12-0.07,0.29-0.06,0.49-0.1c0.12,0.52,0.23,0.98,0.33,1.43c1.45,0,2.81,0,4.2,0
			c0-4.26,0-8.39,0-12.74c-0.91,0-1.72,0-2.54,0c-2.19,0.01-2.19,0.01-2.2,2.16c-0.01,1.72,0.04,3.45-0.09,5.16
			c-0.09,1.17-0.81,1.98-2.08,1.95c-1.3-0.03-1.6-0.99-1.66-2.08c-0.03-0.61-0.01-1.22-0.01-1.83c0-1.75,0-3.49,0-5.26
			C275.91,125.19,274.44,125.19,272.77,125.19z M302.91,134.58c-1.84-0.02-3.6-0.89-5.5,0.41c-1.67,1.15-3.5-0.11-3.53-2.37
			c3.19,0,6.38,0,9.55,0c0.35-3.35-0.92-6.08-3.43-7.06c-2.44-0.95-4.99-1.07-7.47-0.07c-1.99,0.8-3.19,2.34-3.64,4.44
			c-0.72,3.35,0.88,6.7,3.66,7.74c3.93,1.47,8.66,0.3,10.33-2.56C302.92,135.03,302.89,134.9,302.91,134.58z M233.57,128.2
			c0.11-0.19,0.23-0.37,0.34-0.56c-0.85-0.76-1.57-1.84-2.56-2.2c-2.5-0.91-5.13-0.87-7.65,0.07c-1.54,0.57-2.39,1.77-2.35,3.48
			c0.04,1.56,1.08,2.85,2.79,3.32c1.44,0.39,2.95,0.56,4.37,0.98c0.52,0.16,0.9,0.77,1.35,1.18c-0.52,0.35-1,0.89-1.56,1.01
			c-0.53,0.12-1.4,0.01-1.7-0.35c-1.71-2.03-3.64-0.55-5.61-0.76c0.18,1.78,1.15,2.71,2.42,3.16c2.8,0.99,5.66,1.08,8.45-0.09
			c1.73-0.73,2.67-2.3,2.49-3.94c-0.2-1.77-1.33-2.78-2.96-3.19c-1.39-0.35-2.85-0.45-4.24-0.82c-0.53-0.14-0.95-0.71-1.42-1.08
			c0.59-0.3,1.15-0.68,1.77-0.87c0.31-0.09,0.83,0.07,1.09,0.3C230.23,129.27,231.91,128.16,233.57,128.2z M242.93,128.74
			c1.46-0.15,2.81,0.23,2.78-1.99c-0.03-2.28-1.59-1.41-2.78-1.84c0-1.41,0-2.87,0-4.38c-3.55,0.9-4.71,1.94-5.25,4.25
			c-0.6,0.45-1.27,0.98-1.39,1.61c-0.22,1.19-0.32,2.57,1.64,2.37c0.1,2.29,0.13,4.45,0.31,6.59c0.13,1.56,1.1,2.57,2.68,2.7
			c1.56,0.12,3.13,0.03,4.87,0.03c-0.17-1.42-0.28-2.38-0.4-3.3c-2.46-0.11-2.46-0.11-2.47-2.38
			C242.93,131.23,242.93,130.07,242.93,128.74z M211.04,137.65c-0.11-0.97-0.22-1.97-0.33-2.93c-2.44-0.03-2.47-0.06-2.48-2.23
			c0-0.78,0.05-1.56-0.01-2.33c-0.09-1.1,0.24-1.66,1.46-1.58c0.39,0.02,1.03-0.25,1.17-0.56c0.7-1.61-0.09-2.82-1.8-2.95
			c-0.21-0.02-0.42-0.07-0.82-0.15c0-0.73,0-1.43,0-2.14c0-0.74,0-1.49,0-2.31c-3.62,1.11-4.54,1.95-5.12,4.5
			c-0.47,0.1-0.95,0.21-1.4,0.31c-0.44,2.73-0.38,2.89,1.62,3.74c0,1.01,0.04,2.06-0.01,3.11c-0.23,4.65,0.47,6.96,7.1,5.78
			C210.58,137.88,210.73,137.79,211.04,137.65z M276.04,42.7c0.38-2.91,0.38-2.91-2.18-2.92c-7.43,0-14.86-0.01-22.29,0.01
			c-3.49,0.01-6.01,1.67-7.18,4.74c0.71,0.43,1.43,0.87,2.13,1.29c1.85-2.06,1.84-2.12,3.59-2.2c7.86-0.33,15.72-0.62,23.58-0.92
			C274.44,42.67,275.21,42.7,276.04,42.7z M352.08,145.07c-1.13,0.8-1.94,1.84-2.85,1.94c-4.47,0.49-8.95,0.84-13.44,1.02
			c-4.1,0.16-8.22,0.07-12.33,0.01c-1.18-0.02-1.38,0.53-1.36,1.52c0.01,0.92,0.17,1.44,1.28,1.43c8.05-0.04,16.11,0.04,24.16-0.07
			c3.03-0.04,5.14-1.74,6.5-4.6C353.27,145.84,352.59,145.4,352.08,145.07z M190.23,137.95c1.26,0,2.31-0.07,3.34,0.02
			c1.26,0.11,1.61-0.4,1.6-1.62c-0.02-1.88,0.06-3.77,0.29-5.63c0.16-1.35,0.93-2.2,2.51-2.03c0.39,0.04,0.99-0.36,1.21-0.73
			c0.43-0.73,0.67-1.58,1.12-2.71c-1.19-0.11-2.14-0.41-2.99-0.22c-0.83,0.18-1.55,0.86-2.54,1.46c0.33-1.46-0.61-1.37-1.48-1.38
			c-0.67,0-1.37-0.13-1.98,0.05c-0.43,0.13-1.02,0.68-1.03,1.05C190.2,130.01,190.23,133.83,190.23,137.95z M218.51,125.09
			c-1.14,0-2.23,0.06-3.32-0.02c-1.1-0.08-1.45,0.35-1.43,1.43c0.05,3.32,0.01,6.64,0.03,9.96c0,0.47,0.1,0.94,0.15,1.37
			c1.64,0,3.11,0,4.7,0c0-3.94,0-7.75,0-11.56C218.63,125.95,218.57,125.63,218.51,125.09z M252.98,137.88
			c0-3.28,0.03-6.37-0.01-9.46c-0.05-3.85,0.71-3.26-3.49-3.34c-1.01-0.02-1.38,0.34-1.35,1.35c0.05,1.99,0.02,3.99,0.02,5.98
			c0,1.81,0,3.62,0,5.47C249.84,137.88,251.26,137.88,252.98,137.88z M216.1,123.5c1.28-0.08,2.65,0.46,2.6-1.74
			c-0.05-2.16-1.44-1.41-2.49-1.55c-0.16-0.02-0.33,0-0.5,0c-1.95,0.02-2.01,0.13-1.95,2.07C213.83,124.3,215.36,123.16,216.1,123.5
			z M248.44,120.21c-0.75,3-0.54,3.27,2.25,3.27c0.44,0,0.88,0,1.33-0.02c1.25-0.05,0.92-1.02,0.95-1.72
			c0.03-0.7,0.16-1.53-0.96-1.53C250.8,120.2,249.6,120.21,248.44,120.21z"/>
		<path d="M354,18c2.15,1.32,4.55,2.35,6.39,4c4.63,4.16,5.75,11.05,3.05,16.65c-2.81,5.85-8.9,9.11-15.34,8.23
			c-6.2-0.86-11.18-5.67-12.33-11.9c-1.13-6.12,1.81-12.35,7.28-15.34c1.16-0.63,2.4-1.1,3.61-1.65C349.11,18,351.56,18,354,18z"/>
		<path d="M358.97,48.21c0,3.74,0.33,7.36-0.07,10.9c-0.91,8.07-3.87,15.27-10.27,20.66c-4.68,3.94-10.25,5.94-16.18,6.98
			c-11.74,2.06-23.43,2.35-34.92-1.5c-13.17-4.42-23.72-12.4-31.73-23.72c-0.89-1.25-1.79-1.73-3.28-1.66
			c-2.16,0.11-4.33,0.08-6.5,0.01c-2.83-0.09-5.38-2.42-5.88-5.25c-0.52-2.93,0.9-5.61,3.65-6.76c0.65-0.27,1.39-0.4,2.1-0.42
			c3.83-0.1,7.66-0.16,11.5-0.21c2.51-0.03,4.38,1.03,5.93,3.07c3.02,3.97,6.02,7.99,9.41,11.63c9.64,10.37,21.7,13.91,35.57,12.04
			c8.63-1.16,16.52-3.91,22.81-10.24c0.8-0.81,1.52-1.69,2.28-2.54c-0.08-0.12-0.17-0.23-0.25-0.35c-0.69,0.29-1.37,0.59-2.07,0.88
			c-10.62,4.36-21.39,5.24-32.33,1.27c-6.32-2.3-11.86-5.81-16.2-11.03c-2.7-3.24-1.79-7.89,1.81-9.64c2.47-1.2,5.34-0.7,7.36,1.29
			c3.68,3.64,7.79,6.61,12.75,8.26c5.97,1.99,11.88,1.07,17.68-0.68c2.53-0.76,4.92-2.02,7.4-2.98c0.54-0.21,1.34-0.36,1.8-0.12
			c5.62,3.03,11.26,2.97,16.96,0.3C358.45,48.34,358.62,48.32,358.97,48.21z"/>
		<path d="M146.58,193.57c0-6.27,0-12.41,0-18.69c5.73,0,11.3,0,17,0c0,18.23,0,36.46,0,54.81c-5.62,0-11.19,0-16.98,0
			c0-7.43,0-14.78,0-22.22c-6.3,0-12.37,0-18.6,0c0,7.4,0,14.71,0,22.16c-0.61,0.07-1.08,0.16-1.55,0.16
			c-4.66,0.01-9.33-0.02-13.99,0.03c-1.09,0.01-1.6-0.23-1.6-1.46c0.03-17.38,0.02-34.76,0.02-52.14c0-0.73-0.08-1.48,1.04-1.47
			c5.27,0.02,10.53,0.01,15.98,0.01c0,6.33,0,12.51,0,18.82C134.16,193.57,140.24,193.57,146.58,193.57z"/>
		<path d="M230.14,202.09c-0.12,4.31-0.53,8.56-2.04,12.62c-3.06,8.18-8.94,13.24-17.39,15.21c-6.72,1.56-13.48,1.38-20.11-0.52
			c-8.85-2.53-14.21-8.62-16.57-17.32c-1.9-7-1.79-14.1,0.44-21.04c2.62-8.15,8.17-13.49,16.37-15.9c7.03-2.07,14.17-2.05,21.2-0.01
			c10.26,2.98,15.83,10.15,17.52,20.5C229.91,197.75,229.95,199.93,230.14,202.09z M213.08,202.81c-0.2-2.4-0.27-4.12-0.51-5.82
			c-0.16-1.15-0.47-2.29-0.86-3.38c-1.61-4.42-5.38-6.92-10.33-6.91c-4.88,0-8.67,2.41-10.16,6.86c-1.94,5.8-1.88,11.72-0.02,17.51
			c1.46,4.55,5.73,7.03,10.89,6.81c5.02-0.22,8.56-2.81,9.77-7.52C212.54,207.69,212.75,204.91,213.08,202.81z"/>
		<path d="M308.17,206.3c0,3.59,0,6.95,0,10.52c9.76,0,19.46,0,29.26,0c0,4.4,0,8.59,0,12.88c-15.48,0-30.85,0-46.34,0
			c0-18.28,0-36.52,0-54.87c0.59-0.03,1.13-0.07,1.67-0.07c14,0,28,0.02,42-0.04c1.54-0.01,2,0.42,1.95,1.95
			c-0.11,3.26-0.03,6.53-0.03,10.03c-0.76,0-1.35,0-1.94,0c-8.33,0-16.67,0.03-25-0.03c-1.29-0.01-1.78,0.31-1.71,1.67
			c0.11,2.15,0.03,4.31,0.03,6.65c0.79,0.04,1.43,0.1,2.07,0.1c7.61,0.01,15.22,0.04,22.83-0.03c1.35-0.01,1.72,0.43,1.69,1.71
			c-0.07,3.1-0.02,6.2-0.02,9.54C325.74,206.3,317,206.3,308.17,206.3z"/>
		<path d="M102.02,211.75c-1.48,9.11-7.75,15.97-15.38,17.94c-7.43,1.92-14.9,1.75-22.17-0.72c-7.52-2.56-12-8.28-14.34-15.58
			c-2.42-7.53-2.35-15.27,0.06-22.8c3.18-9.95,10.49-15.07,20.58-16.5c5.55-0.78,11.09-0.6,16.48,1.14
			c7.72,2.5,11.89,8.26,14.44,15.85c-5.1,1.12-10,2.2-14.94,3.29c-0.21-0.45-0.39-0.79-0.54-1.14c-1.89-4.5-5.27-6.72-9.96-6.54
			c-4.6,0.18-8.28,2.9-9.57,7.44c-1.64,5.8-1.49,11.66,0.21,17.42c1.12,3.82,3.97,5.8,7.85,6.22c3.98,0.43,7.63-0.33,9.91-3.99
			c1.01-1.62,1.53-3.54,2.35-5.29c0.18-0.38,0.78-0.94,1.03-0.87C92.72,208.96,97.38,210.37,102.02,211.75z"/>
		<path d="M342.86,188.43c0-4.38-0.03-8.49,0.05-12.59c0.01-0.37,0.62-0.78,1.03-1.07c0.18-0.13,0.54-0.03,0.82-0.03
			c16.05,0,32.1,0,48.15,0c0.54,0,1.08,0.05,1.71,0.08c0,4.53,0,8.94,0,13.6c-0.69,0-1.33,0-1.97,0c-4.5,0-9,0.06-13.5-0.04
			c-1.49-0.03-1.86,0.44-1.86,1.89c0.05,12.5,0,24.99,0.06,37.49c0.01,1.58-0.37,2.11-2.02,2.07c-4.44-0.11-8.89-0.09-13.33-0.01
			c-1.38,0.02-1.79-0.38-1.78-1.77c0.05-12.5,0.03-24.99,0.03-37.49c0-2.13,0-2.14-2.2-2.14c-4.33,0-8.66,0-13,0
			C344.41,188.43,343.75,188.43,342.86,188.43z"/>
		<path d="M389.99,155.09c-2.52-0.59-5.03-1.19-7.55-1.76c-0.81-0.18-1.73-0.12-2.43-0.49c-0.56-0.29-0.86-1.07-1.27-1.64
			c0.54-0.38,1.17-1.17,1.6-1.08c3.94,0.89,7.87,1.83,11.72,3.02c0.82,0.25,1.85,1.63,1.79,2.42c-0.07,0.9-1.1,2.24-1.96,2.47
			c-3.89,1.06-7.83,2.1-11.82,2.61c-16.66,2.12-33.42,3-50.19,3.34c-36.26,0.74-72.52,1.39-108.79,1.75
			c-23.71,0.23-47.44,0.05-71.15-0.25c-25.88-0.33-51.77-0.77-77.54-3.46c-6.22-0.65-12.37-1.96-18.53-3.12
			c-1.43-0.27-2.85-0.98-4.09-1.78c-2.28-1.48-2.47-3.95-0.25-5.5c2.07-1.44,4.37-2.75,6.77-3.46c7.18-2.11,14.4-4.16,21.72-5.74
			c19.87-4.29,39.97-7.31,60.1-10.1c6.21-0.86,12.43-1.68,18.65-2.51c0.28-0.04,0.55-0.09,0.82-0.12c0.98-0.11,1.86,0.08,1.99,1.22
			c0.12,1.14-0.72,1.53-1.67,1.66c-2.92,0.39-5.84,0.73-8.75,1.13c-25.36,3.47-50.72,7.04-75.71,12.69
			c-6.37,1.44-12.58,3.59-18.83,5.53c-1.3,0.4-2.44,1.34-3.65,2.03c0.02,0.21,0.04,0.41,0.06,0.62c1.03,0.47,2.01,1.18,3.08,1.38
			c5.61,1.09,11.2,2.36,16.86,2.99c20.66,2.29,41.43,2.88,62.2,3.32c52.82,1.13,105.64,0.84,158.46-0.16
			c19.1-0.36,38.2-1.06,57.28-1.86c12.09-0.51,24.18-1.22,36.14-3.25c1.66-0.28,3.29-0.77,4.93-1.16
			C389.99,155.6,389.99,155.35,389.99,155.09z"/>
		<path d="M239.55,174.75c1.89,0,3.7,0,5.52,0c3.22,0,6.44,0.07,9.66-0.03c1.44-0.05,1.89,0.34,1.88,1.84
			c-0.06,12.5-0.04,24.99-0.04,37.49c0,0.6,0,1.21,0,2.07c0.77,0,1.4,0,2.04,0c7.61,0,15.22,0.03,22.83-0.02
			c1.36-0.01,1.83,0.34,1.79,1.76c-0.1,3.5-0.07,7-0.01,10.5c0.02,1.07-0.29,1.47-1.4,1.47c-13.66-0.03-27.32-0.03-40.99,0
			c-1.09,0-1.43-0.33-1.43-1.43c0.03-17.49,0.01-34.99,0.02-52.48C239.42,175.59,239.49,175.27,239.55,174.75z"/>
		<path d="M337.22,131.14c1.04,0,1.8-0.01,2.57,0c3.46,0.03,6.18,2.72,6.16,6.07c-0.02,3.4-2.71,6.04-6.18,6.05
			c-3.72,0.01-7.46-0.22-11.15,0.07c-4.03,0.31-6.86-3.97-5.86-7.55c2.05-7.37,4.02-14.77,6.1-22.14c0.36-1.28,0.26-2.25-0.52-3.38
			c-3.68-5.35-7.25-10.77-10.86-16.17c-0.3-0.45-0.56-0.92-0.98-1.63c1.76-0.11,3.28-0.21,4.8-0.28c2.77-0.14,5.54-0.34,8.32-0.36
			c0.68,0,1.64,0.41,2.02,0.96c3.46,4.96,6.97,9.9,10.11,15.06c0.76,1.25,0.58,3.36,0.21,4.94c-1.29,5.51-2.84,10.95-4.29,16.42
			C337.52,129.72,337.42,130.26,337.22,131.14z"/>
		<path d="M24.45,141.82c0.33,1.94,0.68,3.57,0.85,5.22c0.05,0.46-0.34,1.12-0.72,1.45c-2.5,2.14-1.88,6.18,1.22,7.32
			c2.26,0.83,4.6,0.85,6.87,0.06c2.94-1.03,3.93-6.42,1.53-8.33c-0.4-0.32-1.12-0.24-2.03-0.4c0,1.2-0.04,2.18,0.01,3.16
			c0.05,0.93-0.33,1.24-1.26,1.29c-3.32,0.18-3.28,0.22-3.08-3.17c0.1-1.83,0.07-3.67,0.03-5.5c-0.02-1,0.33-1.4,1.35-1.36
			c1.83,0.06,3.67,0.1,5.5,0.03c1.56-0.06,2.5,0.53,3.28,1.93c2.23,4.02,2.6,8.24,1.5,12.58c-1.09,4.33-5.48,6.99-10.66,6.75
			c-6.6-0.31-10.31-4.14-10.29-10.77c0-1.71,0.09-3.46,0.45-5.12C19.61,144.2,21.57,142.7,24.45,141.82z"/>
		<path d="M39.2,207.44c0,2.17,0.09,4-0.07,5.81c-0.04,0.46-0.84,1.12-1.38,1.22c-1.69,0.3-2.41,1.1-2.11,2.83
			c0.1,0.59,0.08,1.23,0.01,1.83c-0.28,2.15-0.17,3.99,2.65,4.23c0.27,0.02,0.7,0.59,0.71,0.92c0.07,1.82,0.03,3.64,0.03,5.7
			c-0.73-0.21-1.2-0.3-1.64-0.47c-5.96-2.29-11.91-4.62-17.88-6.87c-1.08-0.41-1.48-0.95-1.33-2.08c0.12-0.87,0.04-1.77,0.06-2.66
			c0.07-3.43-0.54-2.61,2.65-3.81c5.19-1.96,10.42-3.83,15.64-5.73C37.32,208.07,38.1,207.82,39.2,207.44z M24.34,218.49
			c-0.02,0.15-0.03,0.29-0.05,0.44c2.18,0.67,4.35,1.34,6.67,2.05c0-1.58,0-2.9,0-4.45C28.62,217.22,26.48,217.85,24.34,218.49z"/>
		<path d="M24.67,186.55c0.28,1.23,0.47,2.21,0.73,3.17c0.36,1.34,0.5,2.31-1.03,3.31c-2.39,1.55-1.8,5.74,0.99,6.43
			c2.32,0.58,4.91,0.34,7.34,0.07c1.43-0.16,2.06-1.59,2.16-3.03c0.1-1.45-0.19-2.79-1.59-3.58c-0.67-0.38-1.39-0.67-2.3-1.11
			c0.47-1.59,0.91-3.23,1.49-4.82c0.09-0.24,0.85-0.46,1.19-0.34c2.97,1.01,5.24,2.86,5.77,6.08c1.03,6.15-0.4,9.82-3.79,12.1
			c-3.41,2.29-10,2.44-13.33,0.1c-1.06-0.74-2.1-1.75-2.69-2.88c-1.98-3.76-2.04-7.7-0.22-11.53
			C20.36,188.4,22.23,187.22,24.67,186.55z"/>
		<path d="M39.55,183.03c-7.17,0-13.91,0-20.72,0c-0.1-0.4-0.21-0.65-0.21-0.91c0.01-3.55-0.03-7.1,0.1-10.65
			c0.12-3.28,1.7-5.27,4.39-5.89c3.28-0.76,6.4,0.14,7.55,2.67c0.77,1.7,1,3.72,1.11,5.62c0.17,2.68,0.03,2.7,2.69,2.79
			c1.33,0.05,2.67-0.04,3.99,0.11c0.4,0.05,1.02,0.65,1.05,1.04C39.62,179.5,39.55,181.22,39.55,183.03z M25.34,176.63
			c1.07-0.05,2.33,0.39,2.24-1.51c-0.11-2.23-0.79-3.43-2.26-3.49c-1.63-0.07-2.32,0.99-2.48,3.23
			C22.68,177.07,24.22,176.49,25.34,176.63z"/>
		<path d="M169.39,137.94c0.65-1.82,1.18-3.33,1.74-4.83c1.42-3.85,2.89-7.7,4.28-11.56c0.35-0.98,0.86-1.36,1.94-1.38
			c4.67-0.07,4.65-0.09,6.23,4.29c1.36,3.76,2.79,7.5,4.17,11.24c0.24,0.66,0.45,1.33,0.75,2.24c-1.8,0-3.35,0.12-4.86-0.07
			c-0.46-0.06-1.03-0.9-1.16-1.47c-0.26-1.15-0.81-1.59-1.96-1.48c-0.77,0.07-1.56,0.09-2.33,0c-1.65-0.18-2.81,0.17-3.05,2.09
			c-0.04,0.35-0.71,0.86-1.12,0.89C172.58,138.01,171.14,137.94,169.39,137.94z M179.12,125.4c-0.15,0.01-0.3,0.02-0.45,0.04
			c-0.54,1.82-1.09,3.64-1.67,5.6c1.39,0,2.5,0,3.85,0C180.23,129.02,179.67,127.21,179.12,125.4z"/>
		<path d="M265.11,126.58c0.45-1.64,1.52-1.89,4.82-1.24c0,0.92,0,1.9,0,2.88c0,4.38-0.03,8.76,0.02,13.13
			c0.01,1.15-0.35,1.61-1.52,1.52c-1.08-0.08-2.18-0.02-3.44-0.02c0-2.03,0-3.83,0-5.8c-1.01,0.38-1.79,0.78-2.62,0.98
			c-2.73,0.66-5.31-0.8-6.15-3.47c-0.69-2.19-0.6-4.38,0.25-6.51c1.25-3.13,4.98-4.17,7.72-2.18
			C264.44,126.07,264.7,126.27,265.11,126.58z M265.07,131.34c-0.16-0.59-0.14-1.46-0.56-1.8c-0.63-0.53-1.66-1.11-2.34-0.94
			c-1.61,0.39-1.6,1.94-1.56,3.29c0.04,1.22,0.38,2.52,1.81,2.56c0.74,0.02,1.62-0.69,2.22-1.29
			C265,132.8,264.93,132.02,265.07,131.34z"/>
		<path d="M272.77,125.19c1.67,0,3.15,0,4.91,0c0,1.77,0,3.51,0,5.26c0,0.61-0.02,1.22,0.01,1.83c0.06,1.08,0.36,2.04,1.66,2.08
			c1.27,0.03,1.99-0.78,2.08-1.95c0.13-1.71,0.08-3.44,0.09-5.16c0.01-2.15,0.01-2.15,2.2-2.16c0.82,0,1.64,0,2.54,0
			c0,4.35,0,8.48,0,12.74c-1.4,0-2.76,0-4.2,0c-0.1-0.44-0.21-0.91-0.33-1.43c-0.2,0.04-0.36,0.03-0.49,0.1
			c-0.96,0.52-1.86,1.27-2.88,1.53c-3.06,0.78-5.4-0.87-5.57-3.99C272.64,131.17,272.77,128.28,272.77,125.19z"/>
		<path d="M302.91,134.58c-0.02,0.32,0.02,0.45-0.03,0.54c-1.67,2.86-6.4,4.02-10.33,2.56c-2.78-1.04-4.38-4.4-3.66-7.74
			c0.45-2.1,1.65-3.64,3.64-4.44c2.48-1,5.03-0.88,7.47,0.07c2.52,0.98,3.79,3.72,3.43,7.06c-3.17,0-6.36,0-9.55,0
			c0.03,2.26,1.86,3.52,3.53,2.37C299.31,133.69,301.07,134.56,302.91,134.58z M298.45,130.27c0.01-1.62-0.7-2.49-2.23-2.56
			c-1.46-0.07-2.22,0.76-2.36,2.56C295.38,130.27,296.89,130.27,298.45,130.27z"/>
		<path d="M233.57,128.2c-1.66-0.04-3.34,1.07-4.98-0.36c-0.26-0.23-0.78-0.39-1.09-0.3c-0.62,0.18-1.18,0.57-1.77,0.87
			c0.47,0.37,0.89,0.94,1.42,1.08c1.39,0.37,2.84,0.47,4.24,0.82c1.63,0.41,2.76,1.41,2.96,3.19c0.18,1.64-0.76,3.21-2.49,3.94
			c-2.78,1.17-5.65,1.08-8.45,0.09c-1.27-0.45-2.24-1.38-2.42-3.16c1.96,0.21,3.9-1.28,5.61,0.76c0.3,0.36,1.17,0.47,1.7,0.35
			c0.57-0.13,1.05-0.66,1.56-1.01c-0.45-0.41-0.83-1.02-1.35-1.18c-1.43-0.43-2.93-0.59-4.37-0.98c-1.71-0.46-2.75-1.75-2.79-3.32
			c-0.05-1.7,0.81-2.91,2.35-3.48c2.52-0.93,5.15-0.97,7.65-0.07c0.99,0.36,1.72,1.45,2.56,2.2
			C233.8,127.83,233.68,128.01,233.57,128.2z"/>
		<path d="M242.93,128.74c0,1.33,0,2.49,0,3.64c0.01,2.27,0.01,2.27,2.47,2.38c0.11,0.93,0.23,1.89,0.4,3.3
			c-1.75,0-3.32,0.09-4.87-0.03c-1.58-0.12-2.55-1.13-2.68-2.7c-0.18-2.14-0.21-4.3-0.31-6.59c-1.96,0.2-1.86-1.18-1.64-2.37
			c0.12-0.63,0.79-1.15,1.39-1.61c0.54-2.3,1.71-3.34,5.25-4.25c0,1.5,0,2.96,0,4.38c1.2,0.43,2.76-0.44,2.78,1.84
			C245.74,128.96,244.39,128.59,242.93,128.74z"/>
		<path d="M211.04,137.65c-0.31,0.14-0.45,0.23-0.61,0.26c-6.63,1.19-7.32-1.13-7.1-5.78c0.05-1.05,0.01-2.1,0.01-3.11
			c-2-0.85-2.07-1.01-1.62-3.74c0.45-0.1,0.92-0.2,1.4-0.31c0.57-2.54,1.5-3.39,5.12-4.5c0,0.83,0,1.57,0,2.31c0,0.7,0,1.41,0,2.14
			c0.4,0.07,0.61,0.13,0.82,0.15c1.71,0.13,2.5,1.34,1.8,2.95c-0.13,0.31-0.78,0.59-1.17,0.56c-1.22-0.08-1.56,0.48-1.46,1.58
			c0.06,0.77,0.01,1.55,0.01,2.33c0.01,2.17,0.04,2.2,2.48,2.23C210.82,135.68,210.93,136.68,211.04,137.65z"/>
		<path d="M276.04,42.7c-0.83,0-1.6-0.02-2.36,0c-7.86,0.3-15.72,0.59-23.58,0.92c-1.75,0.07-1.74,0.14-3.59,2.2
			c-0.69-0.42-1.42-0.86-2.13-1.29c1.17-3.07,3.7-4.73,7.18-4.74c7.43-0.02,14.86-0.01,22.29-0.01
			C276.42,39.78,276.42,39.79,276.04,42.7z"/>
		<path d="M352.08,145.07c0.5,0.32,1.19,0.76,1.96,1.26c-1.36,2.86-3.47,4.56-6.5,4.6c-8.05,0.11-16.11,0.03-24.16,0.07
			c-1.1,0.01-1.26-0.51-1.28-1.43c-0.01-0.99,0.18-1.54,1.36-1.52c4.11,0.05,8.23,0.15,12.33-0.01c4.49-0.18,8.98-0.53,13.44-1.02
			C350.15,146.92,350.96,145.87,352.08,145.07z"/>
		<path d="M190.23,137.95c0-4.12-0.03-7.94,0.05-11.76c0.01-0.37,0.61-0.92,1.03-1.05c0.61-0.18,1.32-0.05,1.98-0.05
			c0.87,0,1.81-0.08,1.48,1.38c1-0.6,1.71-1.27,2.54-1.46c0.84-0.19,1.79,0.11,2.99,0.22c-0.45,1.13-0.68,1.98-1.12,2.71
			c-0.22,0.37-0.83,0.78-1.21,0.73c-1.58-0.17-2.35,0.68-2.51,2.03c-0.22,1.86-0.31,3.75-0.29,5.63c0.01,1.22-0.34,1.73-1.6,1.62
			C192.54,137.88,191.5,137.95,190.23,137.95z"/>
		<path d="M218.51,125.09c0.05,0.54,0.11,0.86,0.11,1.18c0.01,3.81,0,7.62,0,11.56c-1.59,0-3.05,0-4.7,0
			c-0.05-0.43-0.14-0.9-0.15-1.37c-0.01-3.32,0.02-6.64-0.03-9.96c-0.02-1.08,0.34-1.5,1.43-1.43
			C216.28,125.15,217.37,125.09,218.51,125.09z"/>
		<path d="M252.98,137.88c-1.72,0-3.14,0-4.83,0c0-1.85,0-3.66,0-5.47c0-1.99,0.03-3.99-0.02-5.98c-0.02-1,0.34-1.37,1.35-1.35
			c4.2,0.08,3.43-0.51,3.49,3.34C253.01,131.51,252.98,134.61,252.98,137.88z"/>
		<path d="M216.1,123.5c-0.74-0.34-2.27,0.8-2.34-1.22c-0.06-1.93,0-2.05,1.95-2.07c0.17,0,0.33-0.02,0.5,0
			c1.05,0.14,2.44-0.61,2.49,1.55C218.75,123.96,217.38,123.42,216.1,123.5z"/>
		<path d="M248.44,120.21c1.15,0,2.36,0,3.56,0c1.12,0,0.99,0.84,0.96,1.53c-0.03,0.71,0.31,1.67-0.95,1.72
			c-0.44,0.02-0.88,0.02-1.33,0.02C247.9,123.48,247.7,123.2,248.44,120.21z"/>
		<path class="st1" d="M213.08,202.81c-0.33,2.09-0.54,4.88-1.22,7.55c-1.21,4.71-4.75,7.3-9.77,7.52
			c-5.16,0.23-9.43-2.26-10.89-6.81c-1.86-5.79-1.92-11.72,0.02-17.51c1.49-4.45,5.28-6.86,10.16-6.86c4.96,0,8.72,2.49,10.33,6.91
			c0.4,1.09,0.7,2.23,0.86,3.38C212.81,198.69,212.88,200.42,213.08,202.81z"/>
		<path class="st1" d="M24.34,218.49c2.14-0.63,4.27-1.27,6.62-1.97c0,1.55,0,2.87,0,4.45c-2.32-0.71-4.49-1.38-6.67-2.05
			C24.31,218.78,24.33,218.64,24.34,218.49z"/>
		<path class="st1" d="M25.34,176.63c-1.13-0.14-2.67,0.44-2.51-1.76c0.16-2.25,0.85-3.3,2.48-3.23c1.47,0.06,2.15,1.26,2.26,3.49
			C27.68,177.02,26.41,176.58,25.34,176.63z"/>
		<path class="st1" d="M179.12,125.4c0.55,1.81,1.11,3.62,1.72,5.64c-1.35,0-2.46,0-3.85,0c0.58-1.96,1.13-3.78,1.67-5.6
			C178.82,125.42,178.97,125.41,179.12,125.4z"/>
		<path class="st1" d="M265.07,131.34c-0.14,0.68-0.07,1.46-0.42,1.82c-0.6,0.6-1.48,1.3-2.22,1.29c-1.43-0.03-1.78-1.33-1.81-2.56
			c-0.04-1.35-0.05-2.89,1.56-3.29c0.68-0.17,1.71,0.41,2.34,0.94C264.93,129.88,264.91,130.74,265.07,131.34z"/>
		<path class="st1" d="M298.45,130.27c-1.56,0-3.07,0-4.59,0c0.13-1.8,0.9-2.64,2.36-2.56
			C297.75,127.78,298.46,128.65,298.45,130.27z"/>
	</g>
</g>
</svg>
